<svg id="visual" viewBox="0 0 900 600" width="900" height="600" xmlns="http://www.w3.org/2000/svg" xmlns:xlink="http://www.w3.org/1999/xlink" version="1.1"><rect x="0" y="0" width="900" height="600" fill="#001220"></rect><path d="M0 457L18.8 458.5C37.7 460 75.3 463 112.8 465.7C150.3 468.3 187.7 470.7 225.2 471.7C262.7 472.7 300.3 472.3 337.8 459.8C375.3 447.3 412.7 422.7 450.2 410.5C487.7 398.3 525.3 398.7 562.8 407.8C600.3 417 637.7 435 675.2 439.2C712.7 443.3 750.3 433.7 787.8 433.8C825.3 434 862.7 444 881.3 449L900 454L900 601L881.3 601C862.7 601 825.3 601 787.8 601C750.3 601 712.7 601 675.2 601C637.7 601 600.3 601 562.8 601C525.3 601 487.7 601 450.2 601C412.7 601 375.3 601 337.8 601C300.3 601 262.7 601 225.2 601C187.7 601 150.3 601 112.8 601C75.3 601 37.7 601 18.8 601L0 601Z" fill="#fa7268"></path><path d="M0 457L18.8 455.2C37.7 453.3 75.3 449.7 112.8 451.2C150.3 452.7 187.7 459.3 225.2 463.2C262.7 467 300.3 468 337.8 468.2C375.3 468.3 412.7 467.7 450.2 471.8C487.7 476 525.3 485 562.8 483.7C600.3 482.3 637.7 470.7 675.2 464.2C712.7 457.7 750.3 456.3 787.8 455.3C825.3 454.3 862.7 453.7 881.3 453.3L900 453L900 601L881.3 601C862.7 601 825.3 601 787.8 601C750.3 601 712.7 601 675.2 601C637.7 601 600.3 601 562.8 601C525.3 601 487.7 601 450.2 601C412.7 601 375.3 601 337.8 601C300.3 601 262.7 601 225.2 601C187.7 601 150.3 601 112.8 601C75.3 601 37.7 601 18.8 601L0 601Z" fill="#eb5967"></path><path d="M0 512L18.8 510.3C37.7 508.7 75.3 505.3 112.8 501C150.3 496.7 187.7 491.3 225.2 494.8C262.7 498.3 300.3 510.7 337.8 510.3C375.3 510 412.7 497 450.2 492.7C487.7 488.3 525.3 492.7 562.8 494C600.3 495.3 637.7 493.7 675.2 494.7C712.7 495.7 750.3 499.3 787.8 506.5C825.3 513.7 862.7 524.3 881.3 529.7L900 535L900 601L881.3 601C862.7 601 825.3 601 787.8 601C750.3 601 712.7 601 675.2 601C637.7 601 600.3 601 562.8 601C525.3 601 487.7 601 450.2 601C412.7 601 375.3 601 337.8 601C300.3 601 262.7 601 225.2 601C187.7 601 150.3 601 112.8 601C75.3 601 37.7 601 18.8 601L0 601Z" fill="#da3f67"></path><path d="M0 542L18.8 543.5C37.7 545 75.3 548 112.8 552.8C150.3 557.7 187.7 564.3 225.2 561.8C262.7 559.3 300.3 547.7 337.8 543.7C375.3 539.7 412.7 543.3 450.2 542.7C487.7 542 525.3 537 562.8 540.7C600.3 544.3 637.7 556.7 675.2 557.8C712.7 559 750.3 549 787.8 546.8C825.3 544.7 862.7 550.3 881.3 553.2L900 556L900 601L881.3 601C862.7 601 825.3 601 787.8 601C750.3 601 712.7 601 675.2 601C637.7 601 600.3 601 562.8 601C525.3 601 487.7 601 450.2 601C412.7 601 375.3 601 337.8 601C300.3 601 262.7 601 225.2 601C187.7 601 150.3 601 112.8 601C75.3 601 37.7 601 18.8 601L0 601Z" fill="#c62368"></path></svg>