<svg id="visual" viewBox="0 0 900 600" width="900" height="600" xmlns="http://www.w3.org/2000/svg" xmlns:xlink="http://www.w3.org/1999/xlink" version="1.1"><rect x="0" y="0" width="900" height="600" fill="#002233"></rect><path d="M0 432L21.5 426.5C43 421 86 410 128.8 423.5C171.7 437 214.3 475 257.2 495.2C300 515.3 343 517.7 385.8 511C428.7 504.3 471.3 488.7 514.2 468C557 447.3 600 421.7 642.8 415C685.7 408.3 728.3 420.7 771.2 421.5C814 422.3 857 411.7 878.5 406.3L900 401L900 601L878.5 601C857 601 814 601 771.2 601C728.3 601 685.7 601 642.8 601C600 601 557 601 514.2 601C471.3 601 428.7 601 385.8 601C343 601 300 601 257.2 601C214.3 601 171.7 601 128.8 601C86 601 43 601 21.5 601L0 601Z" fill="#0066FF" stroke-linecap="round" stroke-linejoin="miter"></path></svg>